<svg width="35" height="35" viewBox="0 0 35 35" fill="none" xmlns="http://www.w3.org/2000/svg">
<path fill-rule="evenodd" clip-rule="evenodd" d="M11.7051 15.1454C11.8484 14.7159 12.2154 14.4039 12.6628 14.3314L14.9485 13.9734C15.1266 13.929 15.3089 13.783 15.4062 13.6067L16.4004 11.478C16.5945 11.0532 17.0092 10.788 17.4818 10.788C17.9513 10.788 18.3707 11.0509 18.5761 11.4742L19.5798 13.6233C19.6602 13.8111 19.8336 13.9442 20.0321 13.9707L22.334 14.3311C22.783 14.4039 23.15 14.7159 23.2932 15.1455C23.4366 15.5753 23.3302 16.0453 23.0156 16.3721L23.0152 16.3725L21.2987 18.1498C21.1572 18.2915 21.0954 18.498 21.1344 18.6925L21.1362 18.7027L21.5354 21.1589C21.592 21.5176 21.4955 21.8637 21.2637 22.1349C21.0314 22.4067 20.6965 22.5628 20.345 22.5628C20.1462 22.5628 19.955 22.5134 19.7766 22.416L17.7986 21.3166C17.6026 21.2045 17.393 21.206 17.2028 21.3149L15.2237 22.4149C15.0457 22.5175 14.8501 22.5707 14.6462 22.5707C14.3006 22.5707 13.9698 22.4156 13.7386 22.145C13.5073 21.8743 13.4067 21.5154 13.4627 21.1603L13.8622 18.7027C13.8905 18.5038 13.8289 18.2941 13.6962 18.1464L11.9831 16.3724C11.6681 16.0453 11.5619 15.5753 11.7051 15.1454V15.1454ZM11.1323 33.1306C12.3377 34.3362 13.9403 35 15.6452 35C17.3501 35 18.9526 34.3362 20.158 33.1306L33.1307 20.1581C34.3362 18.9526 35 17.3498 35 15.6452C35 13.9406 34.3362 12.338 33.1311 11.1325V11.1325L32.088 10.089C31.7201 9.72105 31.1497 9.64883 30.7013 9.9133C29.0917 10.8644 27.0423 10.6038 25.7179 9.27923C24.3933 7.95477 24.1325 5.90551 25.0836 4.29572C25.3485 3.84759 25.2763 3.27739 24.9079 2.90913L23.8645 1.86638C22.6611 0.66274 21.0585 -7.875e-05 19.3516 7.0177e-09C17.6449 7.0177e-09 16.0422 0.662819 14.839 1.8663L1.86616 14.8389C0.662746 16.0422 0 17.645 0 19.3517C0 21.0584 0.662746 22.6611 1.86616 23.8645L2.90947 24.9078C3.27742 25.2759 3.84731 25.348 4.29576 25.0835C4.94331 24.7011 5.66205 24.5148 6.37607 24.5148C7.43709 24.5148 8.48764 24.9263 9.27923 25.7176C10.6035 27.042 10.8643 29.0912 9.91347 30.701C9.64868 31.1492 9.72083 31.7193 10.0889 32.0876L11.1323 33.1306Z" fill="white"/>
</svg>
