<svg width="32" height="32" viewBox="0 0 32 32" fill="none" xmlns="http://www.w3.org/2000/svg">
<path fill-rule="evenodd" clip-rule="evenodd" d="M0 13.3906V24.4109H6.93179V21.9464H2.74139V13.3906H0Z" fill="white"/>
<path fill-rule="evenodd" clip-rule="evenodd" d="M8.44336 24.4108H11.1999V13.3906H8.44336V24.4108Z" fill="white"/>
<path fill-rule="evenodd" clip-rule="evenodd" d="M18.3558 20.4162L15.9453 13.3906H12.9688L16.8388 24.0563L16.9697 24.4109H19.7433L23.7385 13.3906H20.7662L18.3558 20.4162Z" fill="white"/>
<path fill-rule="evenodd" clip-rule="evenodd" d="M25.0664 13.3906V24.4109H31.9995V21.9464H27.823V20.0084H31.9995V17.5423H27.823V15.8568H31.9995V13.3906H25.0664Z" fill="white"/>
<mask id="mask0_2146_8288" style="mask-type:luminance" maskUnits="userSpaceOnUse" x="0" y="26" width="32" height="6">
<path fill-rule="evenodd" clip-rule="evenodd" d="M0.445312 26.7363H31.5522V31.9977H0.445312V26.7363Z" fill="white"/>
</mask>
<g mask="url(#mask0_2146_8288)">
<path fill-rule="evenodd" clip-rule="evenodd" d="M28.4633 28.2131C28.4633 28.6299 28.1175 28.969 27.6924 28.969H4.30509C3.88004 28.969 3.53417 28.6299 3.53417 28.2131V26.7363H0.445312V28.2131C0.445312 30.3033 2.17338 31.9977 4.30509 31.9977H27.6924C29.8241 31.9977 31.5522 30.3033 31.5522 28.2131V26.7363H28.4633V28.2131Z" fill="white"/>
</g>
<path fill-rule="evenodd" clip-rule="evenodd" d="M3.53421 9.04392C3.53421 8.62712 3.88004 8.288 4.30513 8.288H10.8541H13.5037H15.2157H17.0736H18.7434L18.7436 8.28777H21.4869H27.6924C28.1175 8.28777 28.4634 8.62689 28.4634 9.04369V10.7081H31.5522V9.04369C31.5522 6.95351 29.8241 5.2591 27.6924 5.2591H21.4869L23.178 2.79348C23.4193 2.41753 23.5258 1.93002 23.413 1.42236C23.2531 0.702844 22.6418 0.140224 21.9001 0.0241435C21.7961 0.00785621 21.6933 0 21.5925 0C20.9261 0 20.3414 0.342378 20.0114 0.857592L20.0069 0.865333L17.0736 5.25933H15.2157L12.4147 0.865333C12.0772 0.357822 11.501 0.0269411 10.8461 0.0269411C10.7364 0.0269411 10.6246 0.0362152 10.5113 0.0554917C9.73343 0.187821 9.11358 0.81628 9.00004 1.58228C8.93402 2.02759 9.03189 2.44757 9.24291 2.7939C9.24456 2.7965 9.24585 2.7993 9.24745 2.80195L9.24299 2.79401L10.8541 5.25933H4.30513C2.17342 5.25933 0.445312 6.95374 0.445312 9.04392V10.7081H3.53421V9.04392Z" fill="white"/>
</svg>
